{
	"asset":{
		"generator":"Khronos glTF Blender I/O v4.4.56",
		"version":"2.0"
	},
	"extensionsUsed":[
		"KHR_lights_punctual"
	],
	"extensionsRequired":[
		"KHR_lights_punctual"
	],
	"extensions":{
		"KHR_lights_punctual":{
			"lights":[
				{
					"color":[
						1,
						0.019880235195159912,
						0.2122994363307953
					],
					"intensity":10870.28261317645,
					"spot":{
						"innerConeAngle":0.556323685321221,
						"outerConeAngle":0.6544984579086304
					},
					"type":"spot",
					"name":"Light"
				}
			]
		}
	},
	"scene":0,
	"scenes":[
		{
			"name":"Scene",
			"nodes":[
				0,
				1,
				2,
				3,
				4,
				5,
				6,
				7,
				8,
				9
			]
		}
	],
	"nodes":[
		{
			"extensions":{
				"KHR_lights_punctual":{
					"light":0
				}
			},
			"name":"Light",
			"rotation":[
				-0.28416624665260315,
				0.7269423604011536,
				0.34203383326530457,
				0.5232754349708557
			],
			"scale":[
				1.011478304862976,
				1.609531283378601,
				1.52399480342865
			],
			"translation":[
				1.857569694519043,
				9.704803466796875,
				-2.0872936248779297
			]
		},
		{
			"mesh":0,
			"name":"Plane",
			"scale":[
				100,
				1,
				100
			]
		},
		{
			"mesh":1,
			"name":"Cube",
			"translation":[
				-95.46646881103516,
				1.069025993347168,
				94.68753051757812
			]
		},
		{
			"mesh":2,
			"name":"emy",
			"rotation":[
				0.7110705375671387,
				0,
				0,
				0.7031207084655762
			],
			"scale":[
				2.633971929550171,
				1.0003751516342163,
				2.6338295936584473
			],
			"translation":[
				0,
				6.443696975708008,
				0
			]
		},
		{
			"extras":{
				"type":"collider"
			},
			"mesh":3,
			"name":"Plane.001",
			"scale":[
				100,
				1,
				100
			]
		},
		{
			"extras":{
				"type":"collider"
			},
			"mesh":4,
			"name":"Cube.001",
			"translation":[
				-95.46646881103516,
				1.069025993347168,
				94.68753051757812
			]
		},
		{
			"extras":{
				"type":"spawn_0"
			},
			"mesh":5,
			"name":"spawn_0",
			"translation":[
				0,
				2.155989170074463,
				11.779653549194336
			]
		},
		{
			"extras":{
				"type":"flag_0"
			},
			"mesh":6,
			"name":"flag_0",
			"translation":[
				-0.4066522717475891,
				1.8307467699050903,
				-10.461967468261719
			]
		},
		{
			"extras":{
				"type":"spawn_1"
			},
			"mesh":7,
			"name":"spawn_1",
			"translation":[
				-0.4066522717475891,
				0.9194430112838745,
				-30.835905075073242
			]
		},
		{
			"extras":{
				"type":"flag_1"
			},
			"mesh":8,
			"name":"flag_1",
			"translation":[
				-0.4066522717475891,
				0.9194430112838745,
				40.20008087158203
			]
		}
	],
	"materials":[
		{
			"doubleSided":true,
			"name":"Material.001",
			"pbrMetallicRoughness":{
				"baseColorFactor":[
					0.8006867170333862,
					0.06330101937055588,
					0.3345641791820526,
					1
				],
				"metallicFactor":0,
				"roughnessFactor":0.5
			}
		}
	],
	"meshes":[
		{
			"name":"Plane",
			"primitives":[
				{
					"attributes":{
						"POSITION":0,
						"NORMAL":1,
						"TEXCOORD_0":2
					},
					"indices":3
				}
			]
		},
		{
			"name":"Cube.001",
			"primitives":[
				{
					"attributes":{
						"POSITION":4,
						"NORMAL":5,
						"TEXCOORD_0":6
					},
					"indices":7
				}
			]
		},
		{
			"name":"Curve",
			"primitives":[
				{
					"attributes":{
						"POSITION":8,
						"NORMAL":9,
						"TEXCOORD_0":10
					},
					"indices":11,
					"material":0
				}
			]
		},
		{
			"name":"Plane.001",
			"primitives":[
				{
					"attributes":{
						"POSITION":12,
						"NORMAL":13,
						"TEXCOORD_0":14
					},
					"indices":3
				}
			]
		},
		{
			"name":"Cube.002",
			"primitives":[
				{
					"attributes":{
						"POSITION":15,
						"NORMAL":16,
						"TEXCOORD_0":17
					},
					"indices":7
				}
			]
		},
		{
			"name":"Cube.003",
			"primitives":[
				{
					"attributes":{
						"POSITION":18,
						"NORMAL":19,
						"TEXCOORD_0":20
					},
					"indices":21
				}
			]
		},
		{
			"name":"Cube.004",
			"primitives":[
				{
					"attributes":{
						"POSITION":22,
						"NORMAL":23,
						"TEXCOORD_0":24
					},
					"indices":21
				}
			]
		},
		{
			"name":"Cube.005",
			"primitives":[
				{
					"attributes":{
						"POSITION":25,
						"NORMAL":26,
						"TEXCOORD_0":27
					},
					"indices":21
				}
			]
		},
		{
			"extras":{
				"type":"flag_1"
			},
			"name":"Cube.006",
			"primitives":[
				{
					"attributes":{
						"POSITION":28,
						"NORMAL":29,
						"TEXCOORD_0":30
					},
					"indices":21
				}
			]
		}
	],
	"accessors":[
		{
			"bufferView":0,
			"componentType":5126,
			"count":4,
			"max":[
				1,
				0,
				1
			],
			"min":[
				-1,
				0,
				-1
			],
			"type":"VEC3"
		},
		{
			"bufferView":1,
			"componentType":5126,
			"count":4,
			"type":"VEC3"
		},
		{
			"bufferView":2,
			"componentType":5126,
			"count":4,
			"type":"VEC2"
		},
		{
			"bufferView":3,
			"componentType":5123,
			"count":6,
			"type":"SCALAR"
		},
		{
			"bufferView":4,
			"componentType":5126,
			"count":9600,
			"max":[
				191,
				1,
				1
			],
			"min":[
				-1,
				-1,
				-191
			],
			"type":"VEC3"
		},
		{
			"bufferView":5,
			"componentType":5126,
			"count":9600,
			"type":"VEC3"
		},
		{
			"bufferView":6,
			"componentType":5126,
			"count":9600,
			"type":"VEC2"
		},
		{
			"bufferView":7,
			"componentType":5123,
			"count":14400,
			"type":"SCALAR"
		},
		{
			"bufferView":8,
			"componentType":5126,
			"count":6034,
			"max":[
				4.680451393127441,
				0.12999999523162842,
				0.25
			],
			"min":[
				0.056000005453825,
				-0.12999999523162842,
				-0.7110029458999634
			],
			"type":"VEC3"
		},
		{
			"bufferView":9,
			"componentType":5126,
			"count":6034,
			"type":"VEC3"
		},
		{
			"bufferView":10,
			"componentType":5126,
			"count":6034,
			"type":"VEC2"
		},
		{
			"bufferView":11,
			"componentType":5123,
			"count":30528,
			"type":"SCALAR"
		},
		{
			"bufferView":12,
			"componentType":5126,
			"count":4,
			"max":[
				1,
				0,
				1
			],
			"min":[
				-1,
				0,
				-1
			],
			"type":"VEC3"
		},
		{
			"bufferView":13,
			"componentType":5126,
			"count":4,
			"type":"VEC3"
		},
		{
			"bufferView":14,
			"componentType":5126,
			"count":4,
			"type":"VEC2"
		},
		{
			"bufferView":15,
			"componentType":5126,
			"count":9600,
			"max":[
				191,
				1,
				1
			],
			"min":[
				-1,
				-1,
				-191
			],
			"type":"VEC3"
		},
		{
			"bufferView":16,
			"componentType":5126,
			"count":9600,
			"type":"VEC3"
		},
		{
			"bufferView":17,
			"componentType":5126,
			"count":9600,
			"type":"VEC2"
		},
		{
			"bufferView":18,
			"componentType":5126,
			"count":24,
			"max":[
				1,
				1,
				1
			],
			"min":[
				-1,
				-1,
				-1
			],
			"type":"VEC3"
		},
		{
			"bufferView":19,
			"componentType":5126,
			"count":24,
			"type":"VEC3"
		},
		{
			"bufferView":20,
			"componentType":5126,
			"count":24,
			"type":"VEC2"
		},
		{
			"bufferView":21,
			"componentType":5123,
			"count":36,
			"type":"SCALAR"
		},
		{
			"bufferView":22,
			"componentType":5126,
			"count":24,
			"max":[
				1,
				1,
				1
			],
			"min":[
				-1,
				-1,
				-1
			],
			"type":"VEC3"
		},
		{
			"bufferView":23,
			"componentType":5126,
			"count":24,
			"type":"VEC3"
		},
		{
			"bufferView":24,
			"componentType":5126,
			"count":24,
			"type":"VEC2"
		},
		{
			"bufferView":25,
			"componentType":5126,
			"count":24,
			"max":[
				1,
				1,
				1
			],
			"min":[
				-1,
				-1,
				-1
			],
			"type":"VEC3"
		},
		{
			"bufferView":26,
			"componentType":5126,
			"count":24,
			"type":"VEC3"
		},
		{
			"bufferView":27,
			"componentType":5126,
			"count":24,
			"type":"VEC2"
		},
		{
			"bufferView":28,
			"componentType":5126,
			"count":24,
			"max":[
				1,
				1,
				1
			],
			"min":[
				-1,
				-1,
				-1
			],
			"type":"VEC3"
		},
		{
			"bufferView":29,
			"componentType":5126,
			"count":24,
			"type":"VEC3"
		},
		{
			"bufferView":30,
			"componentType":5126,
			"count":24,
			"type":"VEC2"
		}
	],
	"bufferViews":[
		{
			"buffer":0,
			"byteLength":48,
			"byteOffset":0,
			"target":34962
		},
		{
			"buffer":0,
			"byteLength":48,
			"byteOffset":48,
			"target":34962
		},
		{
			"buffer":0,
			"byteLength":32,
			"byteOffset":96,
			"target":34962
		},
		{
			"buffer":0,
			"byteLength":12,
			"byteOffset":128,
			"target":34963
		},
		{
			"buffer":0,
			"byteLength":115200,
			"byteOffset":140,
			"target":34962
		},
		{
			"buffer":0,
			"byteLength":115200,
			"byteOffset":115340,
			"target":34962
		},
		{
			"buffer":0,
			"byteLength":76800,
			"byteOffset":230540,
			"target":34962
		},
		{
			"buffer":0,
			"byteLength":28800,
			"byteOffset":307340,
			"target":34963
		},
		{
			"buffer":0,
			"byteLength":72408,
			"byteOffset":336140,
			"target":34962
		},
		{
			"buffer":0,
			"byteLength":72408,
			"byteOffset":408548,
			"target":34962
		},
		{
			"buffer":0,
			"byteLength":48272,
			"byteOffset":480956,
			"target":34962
		},
		{
			"buffer":0,
			"byteLength":61056,
			"byteOffset":529228,
			"target":34963
		},
		{
			"buffer":0,
			"byteLength":48,
			"byteOffset":590284,
			"target":34962
		},
		{
			"buffer":0,
			"byteLength":48,
			"byteOffset":590332,
			"target":34962
		},
		{
			"buffer":0,
			"byteLength":32,
			"byteOffset":590380,
			"target":34962
		},
		{
			"buffer":0,
			"byteLength":115200,
			"byteOffset":590412,
			"target":34962
		},
		{
			"buffer":0,
			"byteLength":115200,
			"byteOffset":705612,
			"target":34962
		},
		{
			"buffer":0,
			"byteLength":76800,
			"byteOffset":820812,
			"target":34962
		},
		{
			"buffer":0,
			"byteLength":288,
			"byteOffset":897612,
			"target":34962
		},
		{
			"buffer":0,
			"byteLength":288,
			"byteOffset":897900,
			"target":34962
		},
		{
			"buffer":0,
			"byteLength":192,
			"byteOffset":898188,
			"target":34962
		},
		{
			"buffer":0,
			"byteLength":72,
			"byteOffset":898380,
			"target":34963
		},
		{
			"buffer":0,
			"byteLength":288,
			"byteOffset":898452,
			"target":34962
		},
		{
			"buffer":0,
			"byteLength":288,
			"byteOffset":898740,
			"target":34962
		},
		{
			"buffer":0,
			"byteLength":192,
			"byteOffset":899028,
			"target":34962
		},
		{
			"buffer":0,
			"byteLength":288,
			"byteOffset":899220,
			"target":34962
		},
		{
			"buffer":0,
			"byteLength":288,
			"byteOffset":899508,
			"target":34962
		},
		{
			"buffer":0,
			"byteLength":192,
			"byteOffset":899796,
			"target":34962
		},
		{
			"buffer":0,
			"byteLength":288,
			"byteOffset":899988,
			"target":34962
		},
		{
			"buffer":0,
			"byteLength":288,
			"byteOffset":900276,
			"target":34962
		},
		{
			"buffer":0,
			"byteLength":192,
			"byteOffset":900564,
			"target":34962
		}
	],
	"buffers":[
		{
			"byteLength":900756,
			"uri":"CTF-test.bin"
		}
	]
}
